ISO-10303-21;
HEADER;
/* Generated by software containing ST-Developer
 * from STEP Tools, Inc. (www.steptools.com) 
 */

FILE_DESCRIPTION(
/* description */ (''),
/* implementation_level */ '2;1');

FILE_NAME(
/* name */ 'plate.step',
/* time_stamp */ '2026-07-29T19:02:29-06:00',
/* author */ (''),
/* organization */ (''),
/* preprocessor_version */ 'ST-DEVELOPER v20.1',
/* originating_system */ 'Autodesk Translation Framework v15.8.0.0',
/* authorisation */ '');

FILE_SCHEMA (('AUTOMOTIVE_DESIGN { 1 0 10303 214 3 1 1 }'));
ENDSEC;

DATA;
#10=MECHANICAL_DESIGN_GEOMETRIC_PRESENTATION_REPRESENTATION('',(#13),#327);
#11=SHAPE_REPRESENTATION_RELATIONSHIP('SRR','None',#333,#12);
#12=ADVANCED_BREP_SHAPE_REPRESENTATION('',(#14),#326);
#13=STYLED_ITEM('',(#342),#14);
#14=MANIFOLD_SOLID_BREP('Body11',#199);
#15=FACE_BOUND('',#45,.T.);
#16=FACE_BOUND('',#46,.T.);
#17=FACE_BOUND('',#47,.T.);
#18=FACE_BOUND('',#48,.T.);
#19=FACE_BOUND('',#51,.T.);
#20=FACE_BOUND('',#52,.T.);
#21=FACE_BOUND('',#53,.T.);
#22=FACE_BOUND('',#54,.T.);
#23=PLANE('',#213);
#24=PLANE('',#214);
#25=PLANE('',#215);
#26=PLANE('',#216);
#27=PLANE('',#217);
#28=PLANE('',#218);
#29=FACE_OUTER_BOUND('',#39,.T.);
#30=FACE_OUTER_BOUND('',#40,.T.);
#31=FACE_OUTER_BOUND('',#41,.T.);
#32=FACE_OUTER_BOUND('',#42,.T.);
#33=FACE_OUTER_BOUND('',#43,.T.);
#34=FACE_OUTER_BOUND('',#44,.T.);
#35=FACE_OUTER_BOUND('',#49,.T.);
#36=FACE_OUTER_BOUND('',#50,.T.);
#37=FACE_OUTER_BOUND('',#55,.T.);
#38=FACE_OUTER_BOUND('',#56,.T.);
#39=EDGE_LOOP('',(#137,#138,#139,#140));
#40=EDGE_LOOP('',(#141,#142,#143,#144));
#41=EDGE_LOOP('',(#145,#146,#147,#148));
#42=EDGE_LOOP('',(#149,#150,#151,#152));
#43=EDGE_LOOP('',(#153,#154,#155,#156));
#44=EDGE_LOOP('',(#157,#158,#159,#160));
#45=EDGE_LOOP('',(#161));
#46=EDGE_LOOP('',(#162));
#47=EDGE_LOOP('',(#163));
#48=EDGE_LOOP('',(#164));
#49=EDGE_LOOP('',(#165,#166,#167,#168));
#50=EDGE_LOOP('',(#169,#170,#171,#172));
#51=EDGE_LOOP('',(#173));
#52=EDGE_LOOP('',(#174));
#53=EDGE_LOOP('',(#175));
#54=EDGE_LOOP('',(#176));
#55=EDGE_LOOP('',(#177,#178,#179,#180));
#56=EDGE_LOOP('',(#181,#182,#183,#184));
#57=LINE('',#278,#73);
#58=LINE('',#284,#74);
#59=LINE('',#290,#75);
#60=LINE('',#296,#76);
#61=LINE('',#301,#77);
#62=LINE('',#303,#78);
#63=LINE('',#305,#79);
#64=LINE('',#306,#80);
#65=LINE('',#309,#81);
#66=LINE('',#311,#82);
#67=LINE('',#312,#83);
#68=LINE('',#315,#84);
#69=LINE('',#317,#85);
#70=LINE('',#318,#86);
#71=LINE('',#320,#87);
#72=LINE('',#321,#88);
#73=VECTOR('',#225,0.899999999999999);
#74=VECTOR('',#232,0.900000000000001);
#75=VECTOR('',#239,0.900000000000001);
#76=VECTOR('',#246,0.899999999999999);
#77=VECTOR('',#251,10.);
#78=VECTOR('',#252,10.);
#79=VECTOR('',#253,10.);
#80=VECTOR('',#254,10.);
#81=VECTOR('',#257,10.);
#82=VECTOR('',#258,10.);
#83=VECTOR('',#259,10.);
#84=VECTOR('',#262,10.);
#85=VECTOR('',#263,10.);
#86=VECTOR('',#264,10.);
#87=VECTOR('',#267,10.);
#88=VECTOR('',#268,10.);
#89=CIRCLE('',#202,0.899999999999999);
#90=CIRCLE('',#203,0.899999999999999);
#91=CIRCLE('',#205,0.900000000000001);
#92=CIRCLE('',#206,0.900000000000001);
#93=CIRCLE('',#208,0.900000000000001);
#94=CIRCLE('',#209,0.900000000000001);
#95=CIRCLE('',#211,0.899999999999999);
#96=CIRCLE('',#212,0.899999999999999);
#97=VERTEX_POINT('',#275);
#98=VERTEX_POINT('',#277);
#99=VERTEX_POINT('',#281);
#100=VERTEX_POINT('',#283);
#101=VERTEX_POINT('',#287);
#102=VERTEX_POINT('',#289);
#103=VERTEX_POINT('',#293);
#104=VERTEX_POINT('',#295);
#105=VERTEX_POINT('',#299);
#106=VERTEX_POINT('',#300);
#107=VERTEX_POINT('',#302);
#108=VERTEX_POINT('',#304);
#109=VERTEX_POINT('',#308);
#110=VERTEX_POINT('',#310);
#111=VERTEX_POINT('',#314);
#112=VERTEX_POINT('',#316);
#113=EDGE_CURVE('',#97,#97,#89,.T.);
#114=EDGE_CURVE('',#97,#98,#57,.T.);
#115=EDGE_CURVE('',#98,#98,#90,.T.);
#116=EDGE_CURVE('',#99,#99,#91,.T.);
#117=EDGE_CURVE('',#99,#100,#58,.T.);
#118=EDGE_CURVE('',#100,#100,#92,.T.);
#119=EDGE_CURVE('',#101,#101,#93,.T.);
#120=EDGE_CURVE('',#101,#102,#59,.T.);
#121=EDGE_CURVE('',#102,#102,#94,.T.);
#122=EDGE_CURVE('',#103,#103,#95,.T.);
#123=EDGE_CURVE('',#103,#104,#60,.T.);
#124=EDGE_CURVE('',#104,#104,#96,.T.);
#125=EDGE_CURVE('',#105,#106,#61,.T.);
#126=EDGE_CURVE('',#105,#107,#62,.T.);
#127=EDGE_CURVE('',#108,#107,#63,.T.);
#128=EDGE_CURVE('',#106,#108,#64,.T.);
#129=EDGE_CURVE('',#106,#109,#65,.T.);
#130=EDGE_CURVE('',#110,#108,#66,.T.);
#131=EDGE_CURVE('',#109,#110,#67,.T.);
#132=EDGE_CURVE('',#109,#111,#68,.T.);
#133=EDGE_CURVE('',#112,#110,#69,.T.);
#134=EDGE_CURVE('',#111,#112,#70,.T.);
#135=EDGE_CURVE('',#111,#105,#71,.T.);
#136=EDGE_CURVE('',#107,#112,#72,.T.);
#137=ORIENTED_EDGE('',*,*,#113,.F.);
#138=ORIENTED_EDGE('',*,*,#114,.T.);
#139=ORIENTED_EDGE('',*,*,#115,.F.);
#140=ORIENTED_EDGE('',*,*,#114,.F.);
#141=ORIENTED_EDGE('',*,*,#116,.F.);
#142=ORIENTED_EDGE('',*,*,#117,.T.);
#143=ORIENTED_EDGE('',*,*,#118,.F.);
#144=ORIENTED_EDGE('',*,*,#117,.F.);
#145=ORIENTED_EDGE('',*,*,#119,.F.);
#146=ORIENTED_EDGE('',*,*,#120,.T.);
#147=ORIENTED_EDGE('',*,*,#121,.F.);
#148=ORIENTED_EDGE('',*,*,#120,.F.);
#149=ORIENTED_EDGE('',*,*,#122,.F.);
#150=ORIENTED_EDGE('',*,*,#123,.T.);
#151=ORIENTED_EDGE('',*,*,#124,.F.);
#152=ORIENTED_EDGE('',*,*,#123,.F.);
#153=ORIENTED_EDGE('',*,*,#125,.F.);
#154=ORIENTED_EDGE('',*,*,#126,.T.);
#155=ORIENTED_EDGE('',*,*,#127,.F.);
#156=ORIENTED_EDGE('',*,*,#128,.F.);
#157=ORIENTED_EDGE('',*,*,#129,.F.);
#158=ORIENTED_EDGE('',*,*,#128,.T.);
#159=ORIENTED_EDGE('',*,*,#130,.F.);
#160=ORIENTED_EDGE('',*,*,#131,.F.);
#161=ORIENTED_EDGE('',*,*,#113,.T.);
#162=ORIENTED_EDGE('',*,*,#116,.T.);
#163=ORIENTED_EDGE('',*,*,#119,.T.);
#164=ORIENTED_EDGE('',*,*,#122,.T.);
#165=ORIENTED_EDGE('',*,*,#132,.F.);
#166=ORIENTED_EDGE('',*,*,#131,.T.);
#167=ORIENTED_EDGE('',*,*,#133,.F.);
#168=ORIENTED_EDGE('',*,*,#134,.F.);
#169=ORIENTED_EDGE('',*,*,#135,.F.);
#170=ORIENTED_EDGE('',*,*,#134,.T.);
#171=ORIENTED_EDGE('',*,*,#136,.F.);
#172=ORIENTED_EDGE('',*,*,#126,.F.);
#173=ORIENTED_EDGE('',*,*,#115,.T.);
#174=ORIENTED_EDGE('',*,*,#118,.T.);
#175=ORIENTED_EDGE('',*,*,#121,.T.);
#176=ORIENTED_EDGE('',*,*,#124,.T.);
#177=ORIENTED_EDGE('',*,*,#135,.T.);
#178=ORIENTED_EDGE('',*,*,#125,.T.);
#179=ORIENTED_EDGE('',*,*,#129,.T.);
#180=ORIENTED_EDGE('',*,*,#132,.T.);
#181=ORIENTED_EDGE('',*,*,#136,.T.);
#182=ORIENTED_EDGE('',*,*,#133,.T.);
#183=ORIENTED_EDGE('',*,*,#130,.T.);
#184=ORIENTED_EDGE('',*,*,#127,.T.);
#185=CYLINDRICAL_SURFACE('',#201,0.899999999999999);
#186=CYLINDRICAL_SURFACE('',#204,0.900000000000001);
#187=CYLINDRICAL_SURFACE('',#207,0.900000000000001);
#188=CYLINDRICAL_SURFACE('',#210,0.899999999999999);
#189=ADVANCED_FACE('',(#29),#185,.F.);
#190=ADVANCED_FACE('',(#30),#186,.F.);
#191=ADVANCED_FACE('',(#31),#187,.F.);
#192=ADVANCED_FACE('',(#32),#188,.F.);
#193=ADVANCED_FACE('',(#33),#23,.T.);
#194=ADVANCED_FACE('',(#34,#15,#16,#17,#18),#24,.T.);
#195=ADVANCED_FACE('',(#35),#25,.T.);
#196=ADVANCED_FACE('',(#36,#19,#20,#21,#22),#26,.T.);
#197=ADVANCED_FACE('',(#37),#27,.T.);
#198=ADVANCED_FACE('',(#38),#28,.T.);
#199=CLOSED_SHELL('',(#189,#190,#191,#192,#193,#194,#195,#196,#197,#198));
#200=AXIS2_PLACEMENT_3D('',#273,#219,#220);
#201=AXIS2_PLACEMENT_3D('',#274,#221,#222);
#202=AXIS2_PLACEMENT_3D('',#276,#223,#224);
#203=AXIS2_PLACEMENT_3D('',#279,#226,#227);
#204=AXIS2_PLACEMENT_3D('',#280,#228,#229);
#205=AXIS2_PLACEMENT_3D('',#282,#230,#231);
#206=AXIS2_PLACEMENT_3D('',#285,#233,#234);
#207=AXIS2_PLACEMENT_3D('',#286,#235,#236);
#208=AXIS2_PLACEMENT_3D('',#288,#237,#238);
#209=AXIS2_PLACEMENT_3D('',#291,#240,#241);
#210=AXIS2_PLACEMENT_3D('',#292,#242,#243);
#211=AXIS2_PLACEMENT_3D('',#294,#244,#245);
#212=AXIS2_PLACEMENT_3D('',#297,#247,#248);
#213=AXIS2_PLACEMENT_3D('',#298,#249,#250);
#214=AXIS2_PLACEMENT_3D('',#307,#255,#256);
#215=AXIS2_PLACEMENT_3D('',#313,#260,#261);
#216=AXIS2_PLACEMENT_3D('',#319,#265,#266);
#217=AXIS2_PLACEMENT_3D('',#322,#269,#270);
#218=AXIS2_PLACEMENT_3D('',#323,#271,#272);
#219=DIRECTION('axis',(0.,0.,1.));
#220=DIRECTION('refdir',(1.,0.,0.));
#221=DIRECTION('center_axis',(0.,0.,1.));
#222=DIRECTION('ref_axis',(1.,0.,0.));
#223=DIRECTION('center_axis',(-2.4532694666934E-16,-2.4532694666934E-16,
1.));
#224=DIRECTION('ref_axis',(1.,0.,0.));
#225=DIRECTION('',(0.,0.,1.));
#226=DIRECTION('center_axis',(1.92990532159754E-16,2.97663361178926E-16,
-1.));
#227=DIRECTION('ref_axis',(1.,0.,0.));
#228=DIRECTION('center_axis',(0.,0.,1.));
#229=DIRECTION('ref_axis',(1.,0.,0.));
#230=DIRECTION('center_axis',(-2.4532694666934E-16,-2.4532694666934E-16,
1.));
#231=DIRECTION('ref_axis',(1.,0.,0.));
#232=DIRECTION('',(0.,0.,1.));
#233=DIRECTION('center_axis',(1.92990532159754E-16,2.97663361178926E-16,
-1.));
#234=DIRECTION('ref_axis',(1.,0.,0.));
#235=DIRECTION('center_axis',(0.,0.,1.));
#236=DIRECTION('ref_axis',(1.,0.,0.));
#237=DIRECTION('center_axis',(-2.4532694666934E-16,-2.4532694666934E-16,
1.));
#238=DIRECTION('ref_axis',(1.,0.,0.));
#239=DIRECTION('',(0.,0.,1.));
#240=DIRECTION('center_axis',(1.92990532159754E-16,2.97663361178926E-16,
-1.));
#241=DIRECTION('ref_axis',(1.,0.,0.));
#242=DIRECTION('center_axis',(0.,0.,1.));
#243=DIRECTION('ref_axis',(1.,0.,0.));
#244=DIRECTION('center_axis',(-2.4532694666934E-16,-2.4532694666934E-16,
1.));
#245=DIRECTION('ref_axis',(1.,0.,0.));
#246=DIRECTION('',(0.,0.,1.));
#247=DIRECTION('center_axis',(1.92990532159754E-16,2.97663361178926E-16,
-1.));
#248=DIRECTION('ref_axis',(1.,0.,0.));
#249=DIRECTION('center_axis',(0.707106781186548,-0.707106781186547,7.40148683083438E-16));
#250=DIRECTION('ref_axis',(-7.85046229341888E-16,2.61682076447296E-16,1.));
#251=DIRECTION('',(7.85046229341888E-16,-2.61682076447296E-16,-1.));
#252=DIRECTION('',(-0.707106781186547,-0.707106781186548,-3.46944695195361E-16));
#253=DIRECTION('',(-7.85046229341888E-16,2.61682076447296E-16,1.));
#254=DIRECTION('',(-0.707106781186547,-0.707106781186548,-3.46944695195361E-16));
#255=DIRECTION('center_axis',(2.4532694666934E-16,2.4532694666934E-16,-1.));
#256=DIRECTION('ref_axis',(0.707106781186548,-0.707106781186547,0.));
#257=DIRECTION('',(-0.707106781186548,0.707106781186547,0.));
#258=DIRECTION('',(0.707106781186548,-0.707106781186547,2.18952885050753E-47));
#259=DIRECTION('',(-0.707106781186547,-0.707106781186548,-3.46944695195361E-16));
#260=DIRECTION('center_axis',(-0.707106781186548,0.707106781186547,-7.40148683083437E-16));
#261=DIRECTION('ref_axis',(7.85046229341887E-16,-2.61682076447295E-16,-1.));
#262=DIRECTION('',(-7.85046229341887E-16,2.61682076447295E-16,1.));
#263=DIRECTION('',(7.85046229341887E-16,-2.61682076447295E-16,-1.));
#264=DIRECTION('',(-0.707106781186547,-0.707106781186548,-3.46944695195361E-16));
#265=DIRECTION('center_axis',(-1.92990532159754E-16,-2.97663361178926E-16,
1.));
#266=DIRECTION('ref_axis',(-0.707106781186548,0.707106781186547,7.40148672054363E-17));
#267=DIRECTION('',(0.707106781186548,-0.707106781186547,-7.40148672054363E-17));
#268=DIRECTION('',(-0.707106781186548,0.707106781186547,7.40148672054363E-17));
#269=DIRECTION('center_axis',(0.707106781186547,0.707106781186548,3.70074341541719E-16));
#270=DIRECTION('ref_axis',(-0.707106781186548,0.707106781186547,0.));
#271=DIRECTION('center_axis',(-0.707106781186547,-0.707106781186548,-3.46944695195361E-16));
#272=DIRECTION('ref_axis',(-4.9065389333868E-16,0.,1.));
#273=CARTESIAN_POINT('',(0.,0.,0.));
#274=CARTESIAN_POINT('Origin',(-29.4562267464947,-8.57499617376222,0.));
#275=CARTESIAN_POINT('',(-30.3562267464947,-8.57499617376222,-9.99999999999999));
#276=CARTESIAN_POINT('Origin',(-29.4562267464947,-8.57499617376222,-9.99999999999999));
#277=CARTESIAN_POINT('',(-30.3562267464947,-8.57499617376222,-8.49999999999999));
#278=CARTESIAN_POINT('',(-30.3562267464947,-8.57499617376222,0.));
#279=CARTESIAN_POINT('Origin',(-29.4562267464947,-8.57499617376222,-8.49999999999999));
#280=CARTESIAN_POINT('Origin',(6.60621909401918,-8.57499617376221,0.));
#281=CARTESIAN_POINT('',(5.70621909401917,-8.57499617376221,-9.99999999999999));
#282=CARTESIAN_POINT('Origin',(6.60621909401918,-8.57499617376221,-9.99999999999999));
#283=CARTESIAN_POINT('',(5.70621909401917,-8.57499617376221,-8.49999999999999));
#284=CARTESIAN_POINT('',(5.70621909401917,-8.57499617376221,0.));
#285=CARTESIAN_POINT('Origin',(6.60621909401918,-8.57499617376221,-8.49999999999999));
#286=CARTESIAN_POINT('Origin',(-11.4250038262378,-26.6062190940192,0.));
#287=CARTESIAN_POINT('',(-12.3250038262378,-26.6062190940192,-9.99999999999999));
#288=CARTESIAN_POINT('Origin',(-11.4250038262378,-26.6062190940192,-9.99999999999999));
#289=CARTESIAN_POINT('',(-12.3250038262378,-26.6062190940192,-8.49999999999999));
#290=CARTESIAN_POINT('',(-12.3250038262378,-26.6062190940192,0.));
#291=CARTESIAN_POINT('Origin',(-11.4250038262378,-26.6062190940192,-8.49999999999999));
#292=CARTESIAN_POINT('Origin',(-11.4250038262378,9.45622674649475,0.));
#293=CARTESIAN_POINT('',(-12.3250038262378,9.45622674649475,-9.99999999999999));
#294=CARTESIAN_POINT('Origin',(-11.4250038262378,9.45622674649475,-9.99999999999999));
#295=CARTESIAN_POINT('',(-12.3250038262378,9.45622674649475,-8.49999999999999));
#296=CARTESIAN_POINT('',(-12.3250038262378,9.45622674649475,0.));
#297=CARTESIAN_POINT('Origin',(-11.4250038262378,9.45622674649475,-8.49999999999999));
#298=CARTESIAN_POINT('Origin',(10.5796899201943,-7.80508666461054,-9.99999999999999));
#299=CARTESIAN_POINT('',(10.5796899201943,-7.80508666461054,-8.49999999999999));
#300=CARTESIAN_POINT('',(10.5796899201943,-7.80508666461054,-9.99999999999999));
#301=CARTESIAN_POINT('',(10.5796899201943,-7.80508666461054,-6.99999999999999));
#302=CARTESIAN_POINT('',(-12.0477270777753,-30.4325036625801,-8.5));
#303=CARTESIAN_POINT('',(10.5796899201943,-7.80508666461054,-8.49999999999999));
#304=CARTESIAN_POINT('',(-12.0477270777753,-30.4325036625801,-10.));
#305=CARTESIAN_POINT('',(-12.0477270777753,-30.4325036625801,-7.));
#306=CARTESIAN_POINT('',(10.5796899201943,-7.80508666461054,-9.99999999999999));
#307=CARTESIAN_POINT('Origin',(-10.6335138315035,13.4081170870872,-9.99999999999999));
#308=CARTESIAN_POINT('',(-10.6335138315035,13.4081170870872,-9.99999999999999));
#309=CARTESIAN_POINT('',(10.5796899201943,-7.80508666461054,-9.99999999999999));
#310=CARTESIAN_POINT('',(-33.2609308294731,-9.21929991088228,-10.));
#311=CARTESIAN_POINT('',(-12.0477270777753,-30.4325036625801,-10.));
#312=CARTESIAN_POINT('',(-10.6335138315035,13.4081170870872,-9.99999999999999));
#313=CARTESIAN_POINT('Origin',(-10.6335138315035,13.4081170870872,-8.49999999999999));
#314=CARTESIAN_POINT('',(-10.6335138315035,13.4081170870873,-8.49999999999999));
#315=CARTESIAN_POINT('',(-10.6335138315035,13.4081170870872,-9.99999999999999));
#316=CARTESIAN_POINT('',(-33.2609308294731,-9.21929991088228,-8.5));
#317=CARTESIAN_POINT('',(-33.2609308294731,-9.21929991088228,-10.));
#318=CARTESIAN_POINT('',(-10.6335138315035,13.4081170870873,-8.49999999999999));
#319=CARTESIAN_POINT('Origin',(10.5796899201943,-7.80508666461053,-8.49999999999999));
#320=CARTESIAN_POINT('',(-10.6335138315035,13.4081170870873,-8.49999999999999));
#321=CARTESIAN_POINT('',(-33.2609308294731,-9.21929991088228,-8.5));
#322=CARTESIAN_POINT('Origin',(-0.0269119556546449,2.80151521123835,-9.24999999999999));
#323=CARTESIAN_POINT('Origin',(-22.6543289536242,-19.8259017867312,-9.25));
#324=UNCERTAINTY_MEASURE_WITH_UNIT(LENGTH_MEASURE(0.01),#328,
'DISTANCE_ACCURACY_VALUE',
'Maximum model space distance between geometric entities at asserted c
onnectivities');
#325=UNCERTAINTY_MEASURE_WITH_UNIT(LENGTH_MEASURE(0.01),#328,
'DISTANCE_ACCURACY_VALUE',
'Maximum model space distance between geometric entities at asserted c
onnectivities');
#326=(
GEOMETRIC_REPRESENTATION_CONTEXT(3)
GLOBAL_UNCERTAINTY_ASSIGNED_CONTEXT((#324))
GLOBAL_UNIT_ASSIGNED_CONTEXT((#328,#329,#330))
REPRESENTATION_CONTEXT('','3D')
);
#327=(
GEOMETRIC_REPRESENTATION_CONTEXT(3)
GLOBAL_UNCERTAINTY_ASSIGNED_CONTEXT((#325))
GLOBAL_UNIT_ASSIGNED_CONTEXT((#328,#329,#330))
REPRESENTATION_CONTEXT('','3D')
);
#328=(
LENGTH_UNIT()
NAMED_UNIT(*)
SI_UNIT(.MILLI.,.METRE.)
);
#329=(
NAMED_UNIT(*)
PLANE_ANGLE_UNIT()
SI_UNIT($,.RADIAN.)
);
#330=(
NAMED_UNIT(*)
SI_UNIT($,.STERADIAN.)
SOLID_ANGLE_UNIT()
);
#331=SHAPE_DEFINITION_REPRESENTATION(#332,#333);
#332=PRODUCT_DEFINITION_SHAPE('',$,#335);
#333=SHAPE_REPRESENTATION('',(#200),#326);
#334=PRODUCT_DEFINITION_CONTEXT('part definition',#339,'design');
#335=PRODUCT_DEFINITION('2.2 inch quad','2.2 inch quad v7',#336,#334);
#336=PRODUCT_DEFINITION_FORMATION('',$,#341);
#337=PRODUCT_RELATED_PRODUCT_CATEGORY('2.2 inch quad v7',
'2.2 inch quad v7',(#341));
#338=APPLICATION_PROTOCOL_DEFINITION('international standard',
'automotive_design',2009,#339);
#339=APPLICATION_CONTEXT(
'Core Data for Automotive Mechanical Design Process');
#340=PRODUCT_CONTEXT('part definition',#339,'mechanical');
#341=PRODUCT('2.2 inch quad','2.2 inch quad v7',$,(#340));
#342=PRESENTATION_STYLE_ASSIGNMENT((#343));
#343=SURFACE_STYLE_USAGE(.BOTH.,#344);
#344=SURFACE_SIDE_STYLE('',(#345));
#345=SURFACE_STYLE_FILL_AREA(#346);
#346=FILL_AREA_STYLE('Steel - Satin',(#347));
#347=FILL_AREA_STYLE_COLOUR('Steel - Satin',#348);
#348=COLOUR_RGB('Steel - Satin',0.627450980392157,0.627450980392157,0.627450980392157);
ENDSEC;
END-ISO-10303-21;
